<?xml version="1.0" encoding="iso-8859-1"?>
<!-- Generator: Adobe Illustrator 19.0.0, SVG Export Plug-In . SVG Version: 6.00 Build 0)  -->
<svg xmlns="http://www.w3.org/2000/svg" xmlns:xlink="http://www.w3.org/1999/xlink" version="1.1" id="Layer_1" x="0px" y="0px" viewBox="0 0 507.9 507.9" style="enable-background:new 0 0 507.9 507.9;" xml:space="preserve" width="512px" height="512px">
<g>
	<g>
		<path d="M379.45,0h-251c-23.3,0-42.3,19-42.3,42.3v423.3c0,23.3,19,42.3,42.3,42.3h251c23.3,0,42.3-19,42.3-42.3V42.3    C421.75,19,402.75,0,379.45,0z M393.55,465.7c0,7.8-6.3,14.1-14.1,14.1h-251c-7.8,0-14.1-6.3-14.1-14.1V42.3    c0-7.8,6.3-14.1,14.1-14.1h251c7.8,0,14.1,6.3,14.1,14.1V465.7z" fill="#006DF0"/>
	</g>
</g>
<g>
	<g>
		<path d="M351.25,56.4h-194.6c-7.8,0-14.1,6.3-14.1,14.1v155.7c0,7.8,6.3,14.1,14.1,14.1h194.5c7.8,0,14.1-6.3,14.1-14.1V70.6    C365.35,62.8,359.05,56.4,351.25,56.4z M170.75,212.2V84.7h166.3v127.5H170.75z" fill="#006DF0"/>
	</g>
</g>
<g>
	<g>
		<path d="M189.15,261.9h-32.4c-7.8,0-14.1,6.3-14.1,14.1c0,7.8,6.3,14.1,14.1,14.1h32.4c7.8,0,14.1-6.3,14.1-14.1    S196.95,261.9,189.15,261.9z" fill="#006DF0"/>
	</g>
</g>
<g>
	<g>
		<path d="M351.25,261.9h-32.4c-7.8,0-14.1,6.3-14.1,14.1c0,7.8,6.3,14.1,14.1,14.1h32.4c7.8,0,14.1-6.3,14.1-14.1    S359.05,261.9,351.25,261.9z" fill="#006DF0"/>
	</g>
</g>
<g>
	<g>
		<path d="M262.05,261.9h-16.2c-7.8,0-14.1,6.3-14.1,14.1c0,7.8,6.3,14.1,14.1,14.1h16.2c7.8,0,14.1-6.3,14.1-14.1    S269.85,261.9,262.05,261.9z" fill="#006DF0"/>
	</g>
</g>
<g>
	<g>
		<path d="M172.85,315.3h-16.2c-7.8,0-14.1,6.3-14.1,14.1c0,7.8,6.3,14.1,14.1,14.1h16.2c7.8,0,14.1-6.3,14.1-14.1    C186.95,321.6,180.65,315.3,172.85,315.3z" fill="#006DF0"/>
	</g>
</g>
<g>
	<g>
		<path d="M232.35,315.3h-16.2c-7.8,0-14.1,6.3-14.1,14.1c0,7.8,6.3,14.1,14.1,14.1h16.2c7.8,0,14.1-6.3,14.1-14.1    C246.45,321.6,240.15,315.3,232.35,315.3z" fill="#006DF0"/>
	</g>
</g>
<g>
	<g>
		<path d="M291.75,315.3h-16.2c-7.8,0-14.1,6.3-14.1,14.1c0,7.8,6.3,14.1,14.1,14.1h16.2c7.8,0,14.1-6.3,14.1-14.1    C305.85,321.6,299.55,315.3,291.75,315.3z" fill="#006DF0"/>
	</g>
</g>
<g>
	<g>
		<path d="M351.25,315.3h-16.2c-7.8,0-14.1,6.3-14.1,14.1c0,7.8,6.3,14.1,14.1,14.1h16.2c7.8,0,14.1-6.3,14.1-14.1    C365.35,321.6,359.05,315.3,351.25,315.3z" fill="#006DF0"/>
	</g>
</g>
<g>
	<g>
		<path d="M172.85,369.4h-16.2c-7.8,0-14.1,6.3-14.1,14.1c0,7.8,6.3,14.1,14.1,14.1h16.2c7.8,0,14.1-6.3,14.1-14.1    C187.05,375.8,180.65,369.4,172.85,369.4z" fill="#006DF0"/>
	</g>
</g>
<g>
	<g>
		<path d="M232.35,369.4h-16.2c-7.8,0-14.1,6.3-14.1,14.1c0,7.8,6.3,14.1,14.1,14.1h16.2c7.8,0,14.1-6.3,14.1-14.1    C246.45,375.8,240.15,369.4,232.35,369.4z" fill="#006DF0"/>
	</g>
</g>
<g>
	<g>
		<path d="M291.75,369.4h-16.2c-7.8,0-14.1,6.3-14.1,14.1c0,7.8,6.3,14.1,14.1,14.1h16.2c7.8,0,14.1-6.3,14.1-14.1    C305.85,375.8,299.55,369.4,291.75,369.4z" fill="#006DF0"/>
	</g>
</g>
<g>
	<g>
		<path d="M351.25,369.4h-16.2c-7.8,0-14.1,6.3-14.1,14.1c0,7.8,6.3,14.1,14.1,14.1h16.2c7.8,0,14.1-6.3,14.1-14.1    C365.35,375.8,359.05,369.4,351.25,369.4z" fill="#006DF0"/>
	</g>
</g>
<g>
	<g>
		<path d="M172.85,423.6h-16.2c-7.8,0-14.1,6.3-14.1,14.1c0,7.8,6.3,14.1,14.1,14.1h16.2c7.8,0,14.1-6.3,14.1-14.1    C187.05,429.9,180.65,423.6,172.85,423.6z" fill="#006DF0"/>
	</g>
</g>
<g>
	<g>
		<path d="M232.35,423.6h-16.2c-7.8,0-14.1,6.3-14.1,14.1c0,7.8,6.3,14.1,14.1,14.1h16.2c7.8,0,14.1-6.3,14.1-14.1    C246.45,429.9,240.15,423.6,232.35,423.6z" fill="#006DF0"/>
	</g>
</g>
<g>
	<g>
		<path d="M291.75,423.6h-16.2c-7.8,0-14.1,6.3-14.1,14.1c0,7.8,6.3,14.1,14.1,14.1h16.2c7.8,0,14.1-6.3,14.1-14.1    C305.85,429.9,299.55,423.6,291.75,423.6z" fill="#006DF0"/>
	</g>
</g>
<g>
	<g>
		<path d="M351.25,423.6h-16.2c-7.8,0-14.1,6.3-14.1,14.1c0,7.8,6.3,14.1,14.1,14.1h16.2c7.8,0,14.1-6.3,14.1-14.1    C365.35,429.9,359.05,423.6,351.25,423.6z" fill="#006DF0"/>
	</g>
</g>
<g>
</g>
<g>
</g>
<g>
</g>
<g>
</g>
<g>
</g>
<g>
</g>
<g>
</g>
<g>
</g>
<g>
</g>
<g>
</g>
<g>
</g>
<g>
</g>
<g>
</g>
<g>
</g>
<g>
</g>
</svg>
