<?xml version="1.0" encoding="iso-8859-1"?>
<!-- Generator: Adobe Illustrator 19.0.0, SVG Export Plug-In . SVG Version: 6.00 Build 0)  -->
<svg xmlns="http://www.w3.org/2000/svg" xmlns:xlink="http://www.w3.org/1999/xlink" version="1.1" id="Capa_1" x="0px" y="0px" viewBox="0 0 384 384" style="enable-background:new 0 0 384 384;" xml:space="preserve" width="512px" height="512px">
<g>
	<g>
		<path d="M348,196.8H186.4V34.4c0-4.8-3.2-8-8-8C80,26.4,0,106.4,0,204.8s80,177.6,178.4,177.6S356,302.4,356,204.8    C356,200,352.8,196.8,348,196.8z M178.4,366.4c-89.6,0-162.4-72-162.4-161.6c0-86.4,68.8-157.6,154.4-161.6v161.6c0,4.8,3.2,8,8,8    H340C336,298.4,264.8,366.4,178.4,366.4z" fill="#006DF0"/>
	</g>
</g>
<g>
	<g>
		<path d="M205.6,1.6c-4.8,0-8,3.2-8,8v169.6c0,4.8,4,8,8,8H376c4.8,0,8-3.2,8-8C384,80.8,304,1.6,205.6,1.6z M213.6,171.2V17.6    c83.2,4,149.6,70.4,154.4,153.6H213.6z" fill="#006DF0"/>
	</g>
</g>
<g>
</g>
<g>
</g>
<g>
</g>
<g>
</g>
<g>
</g>
<g>
</g>
<g>
</g>
<g>
</g>
<g>
</g>
<g>
</g>
<g>
</g>
<g>
</g>
<g>
</g>
<g>
</g>
<g>
</g>
</svg>
